<svg xmlns="http://www.w3.org/2000/svg" xmlns:v="https://svgstorm.com"
viewBox = "0 0 888 888"
width="888"
height="888">
<g fill="#000000" fill-opacity="1.00" stroke="None"><path d="
M 0.00 888.00 
L 888.00 888.00
L 888.00 0.00
L 0.00 0.00
L 0.00 888.00 Z"/>
</g>
<g fill="#FEFEFE" fill-opacity="1.00" stroke="None"><path d="
M 280.00 227.00 
C 269.02 221.67 258.52 214.11 247.75 208.25 C 236.97 202.39 227.28 195.38 216.70 189.30 C 206.11 183.23 195.19 176.39 184.70 170.30 C 174.21 164.22 164.05 157.28 153.70 151.30 C 143.34 145.33 133.10 135.73 122.00 135.00
C 130.30 152.18 141.60 168.08 149.69 185.31 C 157.79 202.53 169.09 217.93 176.69 235.31 C 184.30 252.68 202.93 261.37 216.77 272.23 C 230.61 283.09 257.40 291.76 247.00 313.00
C 239.67 311.15 237.84 322.78 235.98 330.98 C 234.11 339.17 233.17 350.72 232.00 360.00 C 230.83 369.28 229.91 380.98 230.00 391.00 C 230.09 401.02 229.79 413.39 231.00 423.00 C 232.22 432.61 234.31 440.02 237.00 447.00
C 245.76 443.43 240.95 429.67 241.00 421.00 C 241.05 412.33 242.04 397.32 241.00 389.00 C 239.96 380.68 243.39 361.89 246.00 372.00 C 248.61 382.11 243.95 393.40 248.03 401.98 C 252.10 410.55 253.67 418.09 264.00 415.00
C 264.72 403.80 266.72 392.22 267.00 381.00 C 267.28 369.78 269.23 358.94 270.02 348.02 C 270.81 337.11 273.88 326.89 274.00 316.00 C 274.12 305.11 279.50 293.31 276.78 282.22 C 274.06 271.13 273.18 263.98 271.00 252.00 C 268.82 240.02 284.32 238.46 280.00 227.00 Z"/>
</g>
<g fill="#FDFDFD" fill-opacity="1.00" stroke="None"><path d="
M 789.00 135.00 
C 777.70 135.64 767.24 145.84 756.75 151.75 C 746.25 157.65 736.23 164.64 725.70 170.70 C 715.16 176.75 704.31 183.68 693.75 189.75 C 683.18 195.82 673.32 202.78 662.70 208.70 C 652.07 214.61 641.75 221.59 631.00 227.00
C 627.14 238.38 642.42 240.77 639.98 252.98 C 637.54 265.18 636.59 271.83 634.00 283.00 C 631.41 294.17 636.90 305.07 637.02 315.98 C 637.15 326.88 640.19 338.08 641.00 349.00 C 641.81 359.91 643.82 370.87 644.00 382.00 C 644.18 393.13 646.47 403.96 647.00 415.00
C 659.30 419.71 663.79 401.82 665.00 393.00 C 666.21 384.18 664.24 382.03 665.00 373.00 C 665.76 363.97 669.92 369.17 670.00 377.00 C 670.08 384.83 669.57 389.42 670.00 398.00 C 670.43 406.58 668.87 407.32 670.00 418.00 C 671.13 428.68 664.38 444.61 676.00 451.00
C 680.16 442.18 677.59 432.72 680.02 423.02 C 682.46 413.33 680.33 401.06 681.00 391.00 C 681.67 380.94 679.88 369.30 678.99 360.01 C 678.11 350.71 676.73 339.18 674.99 331.01 C 673.26 322.83 671.26 311.12 664.00 313.00
C 653.63 291.72 680.85 282.61 694.75 271.75 C 708.66 260.89 727.26 252.21 734.70 234.70 C 742.13 217.18 753.68 201.89 761.70 184.70 C 769.71 167.50 780.74 152.08 789.00 135.00 Z"/>
</g>
<g fill="#FEFEFE" fill-opacity="1.00" stroke="None"><path d="
M 511.00 447.00 
C 529.27 437.45 540.73 420.28 557.30 408.30 C 573.87 396.33 591.08 385.45 598.22 365.22 C 605.37 345.00 617.25 327.56 624.67 306.67 C 632.09 285.78 617.56 263.73 609.77 244.23 C 601.98 224.72 585.75 213.03 577.30 193.70 C 568.85 174.36 552.44 163.24 531.08 155.92 C 509.71 148.61 478.87 147.10 455.00 147.00 C 431.13 146.90 401.48 148.92 380.07 156.07 C 358.67 163.22 341.70 174.72 333.25 194.25 C 324.81 213.78 309.26 224.70 301.31 244.31 C 293.35 263.91 278.84 286.39 286.69 307.31 C 294.55 328.22 305.39 345.09 312.69 365.31 C 319.99 385.52 337.73 396.72 354.25 408.75 C 370.78 420.77 381.74 437.47 400.00 447.00
C 398.92 442.09 411.44 442.96 415.75 445.25 C 420.07 447.53 425.00 451.18 429.97 453.03 C 434.95 454.88 441.01 458.85 447.00 458.00
C 445.99 445.43 427.97 448.25 420.00 441.00
C 418.13 425.50 411.62 407.34 406.98 393.02 C 402.34 378.71 391.17 368.72 383.30 356.70 C 375.44 344.67 368.48 325.66 352.00 329.00 C 335.52 332.34 316.70 324.49 315.00 308.00
C 321.19 314.15 325.98 323.24 334.98 325.02 C 343.97 326.81 360.85 326.65 360.00 315.00 C 359.15 303.35 355.03 296.62 352.98 286.02 C 350.93 275.43 347.91 266.36 345.99 256.01 C 344.08 245.65 342.95 235.96 340.00 226.00
C 331.36 233.57 329.28 239.78 322.30 249.30 C 315.33 258.83 316.06 265.99 309.30 277.30 C 302.55 288.62 296.46 267.56 303.08 259.08 C 309.69 250.59 310.47 239.94 317.23 232.23 C 323.99 224.52 326.87 214.94 335.92 209.92 C 344.98 204.91 351.34 199.41 360.77 194.77 C 370.20 190.13 377.00 183.95 387.77 180.77 C 398.55 177.59 401.04 166.55 406.00 159.00
C 415.11 177.07 439.03 169.85 456.00 170.00 C 472.97 170.15 495.91 176.77 505.00 159.00
C 509.70 166.93 513.08 177.89 523.92 181.08 C 534.77 184.26 541.50 190.54 550.92 195.08 C 560.34 199.62 566.69 205.64 575.75 210.25 C 584.82 214.86 587.23 226.27 594.08 232.92 C 600.93 239.56 601.75 253.52 608.08 259.92 C 614.40 266.33 608.32 294.57 601.32 276.68 C 594.33 258.79 585.53 239.66 571.00 226.00
C 567.88 236.02 566.92 246.60 564.93 256.93 C 562.93 267.25 559.77 276.48 557.93 286.93 C 556.09 297.37 550.99 304.70 551.00 316.00 C 551.02 327.30 568.40 326.78 576.98 324.98 C 585.55 323.17 589.80 313.48 596.00 308.00
C 594.47 325.40 574.60 331.68 558.22 328.78 C 541.85 325.88 535.75 345.06 527.75 356.75 C 519.75 368.44 508.19 379.55 503.78 393.78 C 499.36 408.01 492.72 425.65 491.00 441.00
C 483.02 448.24 465.00 445.46 464.00 458.00
C 470.04 458.96 475.97 454.81 480.92 452.92 C 485.88 451.04 491.01 447.69 495.31 445.31 C 499.60 442.92 512.17 442.16 511.00 447.00 Z"/>
</g>
<g fill="#FEFEFE" fill-opacity="1.00" stroke="None"><path d="
M 505.00 317.00 
C 507.01 303.17 505.34 287.88 507.02 274.02 C 508.71 260.17 507.84 245.06 508.00 231.00 C 508.16 216.94 505.23 204.56 504.00 191.00 C 502.77 177.45 486.05 176.80 474.07 176.93 C 462.10 177.05 448.05 177.20 436.00 177.00 C 423.95 176.80 407.62 177.99 406.78 191.78 C 405.94 205.56 402.68 217.87 403.00 232.00 C 403.32 246.13 402.20 261.22 404.00 275.00 C 405.80 288.78 403.91 303.31 406.00 317.00
C 414.22 306.86 408.41 292.15 409.40 280.74 C 410.40 269.34 422.93 262.45 434.00 263.00 C 445.07 263.55 465.98 263.59 477.00 263.00 C 488.02 262.41 500.61 269.33 501.75 280.75 C 502.89 292.18 496.50 306.71 505.00 317.00 Z"/>
</g>
<g fill="#FDFDFD" fill-opacity="1.00" stroke="None"><path d="
M 350.00 244.00 
C 356.28 234.78 359.43 221.97 369.92 214.92 C 380.40 207.86 363.04 205.04 360.23 210.23 C 357.42 215.42 347.81 214.37 348.00 222.00 C 348.19 229.63 348.50 236.77 350.00 244.00 Z"/>
</g>
<g fill="#FDFDFD" fill-opacity="1.00" stroke="None"><path d="
M 561.00 244.00 
C 561.48 238.20 566.01 221.15 560.75 217.25 C 555.49 213.35 547.74 204.31 541.10 207.10 C 534.47 209.89 546.76 220.87 550.25 224.75 C 553.74 228.64 556.87 240.22 561.00 244.00 Z"/>
</g>
<g fill="#000000" fill-opacity="1.00" stroke="None"><path d="
M 250.00 264.00 
C 255.23 254.28 246.98 239.34 235.00 241.00
C 234.33 250.46 237.88 265.51 250.00 264.00 Z"/>
</g>
<g fill="#000000" fill-opacity="1.00" stroke="None"><path d="
M 676.00 241.00 
C 667.25 238.12 652.91 254.65 660.71 262.29 C 668.51 269.93 679.70 248.78 676.00 241.00 Z"/>
</g>
<g fill="#010101" fill-opacity="1.00" stroke="None"><path d="
M 409.00 285.00 
C 407.28 286.89 407.48 292.04 409.00 294.00
C 409.00 291.00 409.00 288.00 409.00 285.00 Z"/>
</g>
<g fill="#010101" fill-opacity="1.00" stroke="None"><path d="
M 503.00 285.00 
C 501.28 286.89 501.48 292.04 503.00 294.00
C 503.00 291.00 503.00 288.00 503.00 285.00 Z"/>
</g>
<g fill="#FEFEFE" fill-opacity="1.00" stroke="None"><path d="
M 470.00 360.00 
C 471.82 351.29 478.72 346.09 483.23 338.23 C 487.73 330.36 487.41 318.04 484.78 309.22 C 482.15 300.41 484.76 285.84 473.00 286.00 C 461.24 286.16 449.79 286.21 438.00 286.00 C 426.21 285.79 428.89 300.55 426.33 309.33 C 423.77 318.11 423.12 330.42 427.70 338.30 C 432.27 346.18 439.23 351.24 441.00 360.00
C 449.79 363.10 461.22 363.10 470.00 360.00 Z"/>
</g>
<g fill="#FEFEFE" fill-opacity="1.00" stroke="None"><path d="
M 385.00 306.00 
C 373.86 300.87 363.92 316.01 371.10 322.90 C 378.28 329.78 381.88 309.01 385.00 306.00 Z"/>
</g>
<g fill="#FEFEFE" fill-opacity="1.00" stroke="None"><path d="
M 526.00 306.00 
C 528.91 308.87 532.83 329.78 540.08 323.08 C 547.32 316.37 536.95 300.61 526.00 306.00 Z"/>
</g>
<g fill="#000000" fill-opacity="1.00" stroke="None"><path d="
M 344.00 334.00 
C 329.67 329.65 321.39 349.98 326.23 361.77 C 331.07 373.56 349.56 375.97 357.75 363.75 C 365.93 351.52 355.50 337.49 344.00 334.00 Z"/>
</g>
<g fill="#000000" fill-opacity="1.00" stroke="None"><path d="
M 575.00 334.00 
C 562.95 331.02 547.36 345.46 550.68 358.32 C 554.00 371.19 574.12 376.23 581.75 366.75 C 589.37 357.26 586.62 336.88 575.00 334.00 Z"/>
</g>
<g fill="#FEFEFE" fill-opacity="1.00" stroke="None"><path d="
M 453.00 410.00 
C 456.71 396.43 447.24 385.46 442.77 372.23 C 438.30 359.00 429.25 355.19 421.92 342.08 C 414.58 328.97 402.38 346.95 402.00 359.00 C 401.62 371.05 413.76 381.88 422.92 389.08 C 432.08 396.28 442.36 405.10 453.00 410.00 Z"/>
</g>
<g fill="#FEFEFE" fill-opacity="1.00" stroke="None"><path d="
M 458.00 410.00 
C 467.69 405.39 475.01 399.46 483.75 392.75 C 492.49 386.05 498.43 380.80 505.23 371.23 C 512.03 361.66 507.52 351.22 501.30 340.70 C 495.09 330.17 487.02 344.51 481.30 352.30 C 475.58 360.10 467.99 369.55 465.32 379.32 C 462.65 389.10 453.05 399.70 458.00 410.00 Z"/>
</g>
<g fill="#FFFFFF" fill-opacity="1.00" stroke="None"><path d="
M 343.00 348.00 
C 341.88 346.88 338.70 349.05 340.32 350.66 C 341.94 352.27 344.21 349.21 343.00 348.00 Z"/>
</g>
<g fill="#FFFFFF" fill-opacity="1.00" stroke="None"><path d="
M 571.00 348.00 
C 569.88 346.88 566.70 349.05 568.32 350.66 C 569.94 352.27 572.21 349.21 571.00 348.00 Z"/>
</g>
<g fill="#FEFEFE" fill-opacity="1.00" stroke="None"><path d="
M 331.00 349.00 
C 328.66 360.72 340.91 350.07 331.00 349.00 Z"/>
</g>
<g fill="#FEFEFE" fill-opacity="1.00" stroke="None"><path d="
M 580.00 349.00 
C 570.05 350.11 582.44 360.71 580.00 349.00 Z"/>
</g>
<g fill="#FEFEFE" fill-opacity="1.00" stroke="None"><path d="
M 273.00 421.00 
C 288.48 427.29 302.82 412.51 301.00 397.00 C 299.18 381.49 297.04 365.12 278.00 364.00
C 272.92 382.15 271.69 402.02 273.00 421.00 Z"/>
</g>
<g fill="#FEFEFE" fill-opacity="1.00" stroke="None"><path d="
M 633.00 364.00 
C 613.94 365.12 611.83 381.51 610.00 397.00 C 608.17 412.49 622.54 427.31 638.00 421.00
C 639.31 402.02 638.07 382.12 633.00 364.00 Z"/>
</g>
<g fill="#FEFEFE" fill-opacity="1.00" stroke="None"><path d="
M 287.00 475.00 
C 288.92 476.92 291.12 479.12 293.00 481.00
C 297.02 484.51 299.44 486.81 303.77 490.23 C 308.10 493.65 313.35 492.02 318.00 492.00
C 316.21 480.82 312.61 464.36 310.00 454.00 C 307.38 443.64 307.80 421.46 295.02 423.02 C 282.25 424.59 272.44 432.77 271.00 445.00 C 269.57 457.23 279.62 466.36 287.00 475.00 Z"/>
</g>
<g fill="#FEFEFE" fill-opacity="1.00" stroke="None"><path d="
M 618.00 481.00 
C 619.92 479.08 622.12 476.88 624.00 475.00
C 632.18 467.06 640.94 456.96 639.93 445.07 C 638.92 433.19 628.62 424.39 616.00 423.00 C 603.38 421.61 603.49 443.50 600.93 453.93 C 598.36 464.35 594.84 480.83 593.00 492.00
C 597.74 492.00 602.91 493.67 607.25 490.25 C 611.60 486.83 613.88 484.52 618.00 481.00 Z"/>
</g>
<g fill="#FCFCFC" fill-opacity="1.00" stroke="None"><path d="
M 411.00 464.00 
C 402.44 459.82 388.00 463.87 378.08 458.92 C 368.17 453.97 367.94 444.05 363.00 436.00
C 357.02 461.01 391.24 476.50 411.00 464.00 Z"/>
</g>
<g fill="#FCFCFC" fill-opacity="1.00" stroke="None"><path d="
M 500.00 464.00 
C 519.78 476.47 553.93 461.08 548.00 436.00
C 542.93 443.80 543.00 454.07 533.07 459.07 C 523.15 464.08 508.50 459.61 500.00 464.00 Z"/>
</g>
<g fill="#797979" fill-opacity="1.00" stroke="None"><path d="
M 293.00 481.00 
C 291.12 479.12 288.92 476.92 287.00 475.00
C 288.85 477.17 290.78 479.10 293.00 481.00 Z"/>
</g>
<g fill="#797979" fill-opacity="1.00" stroke="None"><path d="
M 618.00 481.00 
C 620.17 479.15 622.10 477.22 624.00 475.00
C 622.12 476.88 619.92 479.08 618.00 481.00 Z"/>
</g>
<g fill="#F5F5F5" fill-opacity="1.00" stroke="None"><path d="
M 159.00 609.00 
C 159.57 610.97 160.95 611.13 162.00 613.00
C 165.99 610.92 166.43 612.04 168.91 611.88 C 171.38 611.73 174.72 610.28 175.00 614.00
C 177.12 608.96 183.02 615.92 185.00 610.00
C 182.68 598.25 167.57 585.02 176.23 574.23 C 184.89 563.44 187.27 550.95 195.25 540.25 C 203.22 529.55 212.76 523.22 221.25 513.25 C 229.73 503.27 230.82 487.42 237.00 476.00
C 224.50 481.09 229.92 504.25 218.75 510.75 C 207.58 517.25 197.55 522.50 187.75 532.75 C 177.95 543.00 169.26 550.47 166.93 564.93 C 164.59 579.38 159.65 593.84 159.00 609.00 Z"/>
</g>
<g fill="#F9F9F9" fill-opacity="1.00" stroke="None"><path d="
M 669.00 634.00 
C 673.55 633.77 679.45 637.12 681.00 633.00
C 686.84 637.81 696.01 634.05 705.08 635.94 C 714.16 637.82 726.07 634.10 733.00 640.00
C 735.89 640.23 734.57 635.36 737.00 639.00
C 739.91 633.56 745.45 628.44 747.30 622.30 C 749.16 616.16 757.63 607.34 759.92 617.08 C 762.22 626.82 762.42 631.65 764.00 641.00
C 765.95 643.23 765.75 639.26 768.00 640.00
C 770.28 641.37 768.24 644.15 771.00 644.00
C 771.49 636.84 769.79 628.40 769.33 621.67 C 768.87 614.94 767.24 608.03 765.99 602.01 C 764.74 595.99 763.07 588.54 761.78 583.22 C 760.48 577.91 754.21 569.24 761.00 571.00
C 752.04 560.20 741.30 550.88 730.75 540.25 C 720.20 529.62 710.46 518.81 696.68 513.32 C 682.90 507.84 685.99 483.05 674.00 476.00
C 678.44 486.06 681.69 498.80 686.68 508.32 C 691.66 517.85 700.83 523.03 707.75 531.25 C 714.68 539.47 722.15 547.49 725.23 557.77 C 728.31 568.05 740.79 575.43 736.92 585.92 C 733.06 596.42 725.86 604.85 722.77 615.77 C 719.68 626.69 708.55 638.43 703.92 625.08 C 699.30 611.72 695.23 605.99 690.31 594.69 C 685.38 583.40 681.35 575.16 675.77 565.23 C 670.19 555.30 667.27 543.87 657.00 540.00
C 657.36 551.78 665.90 563.40 670.23 573.77 C 674.56 584.14 687.47 595.08 676.00 605.00
C 673.72 602.44 671.44 604.29 669.00 603.00
C 659.81 612.73 669.39 623.96 669.00 634.00 Z"/>
</g>
<g fill="#F9F9F9" fill-opacity="1.00" stroke="None"><path d="
M 361.00 509.00 
C 361.42 502.44 351.20 494.60 347.75 489.25 C 344.30 483.90 329.86 475.31 325.09 479.08 C 320.32 482.85 335.79 490.62 339.77 495.23 C 343.75 499.84 357.61 503.27 361.00 509.00 Z"/>
</g>
<g fill="#F9F9F9" fill-opacity="1.00" stroke="None"><path d="
M 550.00 509.00 
C 559.71 501.02 573.20 495.77 582.75 485.75 C 592.30 475.74 582.69 479.81 576.01 481.01 C 569.33 482.21 563.98 487.81 560.25 493.25 C 556.52 498.69 549.45 502.64 550.00 509.00 Z"/>
</g>
<g fill="#FBFBFB" fill-opacity="1.00" stroke="None"><path d="
M 371.00 494.00 
C 377.25 495.50 392.68 495.48 397.93 492.93 C 403.17 490.38 422.13 492.79 418.75 487.25 C 415.36 481.72 398.92 486.55 393.22 487.22 C 387.52 487.89 374.19 489.20 371.00 494.00 Z"/>
</g>
<g fill="#FBFBFB" fill-opacity="1.00" stroke="None"><path d="
M 540.00 494.00 
C 536.71 489.15 522.73 487.80 517.00 487.00 C 511.28 486.20 495.42 481.79 492.31 487.30 C 489.19 492.82 508.83 490.37 513.98 493.02 C 519.13 495.68 533.90 495.38 540.00 494.00 Z"/>
</g>
<g fill="#FCFCFC" fill-opacity="1.00" stroke="None"><path d="
M 326.00 561.00 
C 336.72 557.89 330.41 570.00 340.31 573.69 C 350.20 577.39 346.57 564.35 343.32 557.68 C 340.07 551.01 335.74 544.63 328.75 541.25 C 321.75 537.88 315.49 534.13 309.75 529.25 C 304.01 524.36 298.71 519.95 293.77 514.23 C 288.83 508.51 283.78 500.71 275.00 502.00
C 274.10 512.42 277.02 521.93 281.00 531.00
C 279.13 517.27 288.45 517.39 295.30 524.70 C 302.16 532.00 307.50 533.37 313.75 540.25 C 320.01 547.13 321.88 553.15 326.00 561.00 Z"/>
</g>
<g fill="#FCFCFC" fill-opacity="1.00" stroke="None"><path d="
M 636.00 502.00 
C 625.82 500.52 619.74 511.80 613.75 517.75 C 607.77 523.71 600.22 530.60 593.74 534.74 C 587.26 538.89 575.60 543.40 571.75 549.75 C 567.91 556.11 558.63 570.52 565.99 574.99 C 573.36 579.46 577.82 554.78 585.00 561.00
C 589.09 553.07 591.33 546.48 597.75 539.75 C 604.17 533.02 609.33 531.39 616.25 524.25 C 623.17 517.11 631.71 517.88 630.00 531.00
C 633.98 521.91 636.90 512.42 636.00 502.00 Z"/>
</g>
<g fill="#F0F0F0" fill-opacity="1.00" stroke="None"><path d="
M 217.00 603.00 
C 218.24 601.93 221.84 602.42 223.00 605.00
C 225.37 603.47 226.74 603.13 230.00 604.00
C 233.06 603.65 234.30 601.07 232.00 598.00
C 248.82 584.28 256.97 562.22 265.00 543.00
C 255.43 546.74 251.53 559.79 245.92 568.92 C 240.31 578.06 235.49 589.36 231.00 599.00
C 231.65 578.76 252.76 561.51 254.00 540.00
C 242.32 544.05 239.92 559.23 233.30 569.31 C 226.69 579.38 222.49 592.25 217.00 603.00 Z"/>
</g>
<g fill="#EEEEEE" fill-opacity="1.00" stroke="None"><path d="
M 678.00 594.00 
C 672.70 585.67 669.14 574.51 663.75 566.25 C 658.36 557.98 655.07 546.01 646.00 543.00
C 648.38 552.70 654.39 563.21 659.23 571.77 C 664.07 580.33 667.67 592.60 678.00 594.00 Z"/>
</g>
<g fill="#F5F5F5" fill-opacity="1.00" stroke="None"><path d="
M 498.00 636.00 
C 500.49 625.40 513.07 615.40 506.25 604.75 C 499.44 594.09 493.96 591.10 487.25 579.75 C 480.54 568.41 467.62 566.89 455.00 567.00 C 442.38 567.11 430.35 568.59 423.77 579.77 C 417.19 590.95 410.71 594.67 404.25 605.25 C 397.80 615.84 411.10 625.67 413.00 636.00
C 423.15 630.92 422.18 612.97 433.00 607.00
C 434.45 611.34 430.01 617.45 437.00 617.00 C 443.98 616.55 445.91 615.89 452.00 614.00
C 453.75 607.40 449.45 601.60 443.00 601.00
C 452.00 599.75 455.68 591.09 456.00 583.00
C 454.13 592.00 459.80 599.44 468.00 601.00
C 461.57 601.59 457.24 607.40 459.00 614.00
C 465.16 615.88 466.99 616.57 474.00 617.00 C 481.01 617.43 476.55 611.31 478.00 607.00
C 488.81 612.95 487.87 630.94 498.00 636.00 Z"/>
</g>
<g fill="#F5F5F5" fill-opacity="1.00" stroke="None"><path d="
M 353.00 580.00 
C 355.12 587.58 366.31 594.45 371.70 599.30 C 377.08 604.16 377.34 624.24 385.23 617.23 C 393.12 610.22 383.74 597.71 377.23 592.77 C 370.72 587.83 362.13 579.19 353.00 580.00 Z"/>
</g>
<g fill="#FAFAFA" fill-opacity="1.00" stroke="None"><path d="
M 558.00 580.00 
C 548.78 579.17 539.68 588.22 533.25 593.25 C 526.82 598.27 517.89 610.39 525.75 617.25 C 533.61 624.11 534.18 603.35 539.75 598.75 C 545.32 594.15 555.85 587.45 558.00 580.00 Z"/>
</g>
<g fill="#D1D1D1" fill-opacity="1.00" stroke="None"><path d="
M 301.00 654.00 
C 302.82 655.93 310.61 655.57 313.01 654.01 C 315.41 652.44 322.74 657.35 323.00 654.00
C 318.51 643.71 311.03 634.91 308.32 623.68 C 305.61 612.45 308.51 602.89 313.00 593.00
C 298.60 600.88 289.51 617.57 286.00 633.00
C 297.42 630.15 298.17 646.04 301.00 654.00 Z"/>
</g>
<g fill="#EBEBEB" fill-opacity="1.00" stroke="None"><path d="
M 604.00 606.00 
C 604.17 607.48 602.99 609.23 603.00 610.00
C 603.10 621.50 601.35 628.53 596.00 639.00
C 600.16 636.24 602.06 642.18 607.00 641.00
C 602.70 637.53 613.23 640.20 614.00 642.00
C 613.75 634.85 618.94 631.71 625.00 633.00
C 621.46 617.52 612.43 600.92 598.00 593.00
C 599.04 597.59 603.44 601.22 604.00 606.00 Z"/>
</g>
<g fill="#8B8B8B" fill-opacity="1.00" stroke="None"><path d="
M 237.00 604.00 
C 237.74 604.48 242.18 605.13 242.00 605.00
C 242.66 602.87 238.87 601.87 241.00 600.00
C 238.55 600.66 237.65 602.71 235.00 601.00
C 234.75 602.46 236.08 603.40 237.00 604.00 Z"/>
</g>
<g fill="#CCCCCC" fill-opacity="1.00" stroke="None"><path d="
M 217.00 603.00 
C 213.64 609.56 209.25 615.50 207.93 622.93 C 206.60 630.35 198.62 636.37 194.77 628.23 C 190.92 620.08 188.66 617.40 185.00 610.00
C 183.02 615.92 177.12 608.96 175.00 614.00
C 174.72 610.28 171.38 611.73 168.91 611.88 C 166.43 612.04 165.99 610.92 162.00 613.00
C 160.95 611.13 159.57 610.97 159.00 609.00
C 158.44 622.18 179.00 634.94 176.00 649.00
C 176.56 650.62 176.72 651.40 179.00 651.00
C 177.58 645.35 186.55 648.06 188.00 646.00
C 186.87 649.29 191.71 650.90 193.00 648.00
C 195.53 649.10 191.51 652.45 195.00 653.00
C 194.10 641.44 204.03 651.42 208.00 648.00
C 207.04 652.34 210.68 649.83 213.00 650.00
C 213.18 654.06 214.96 650.12 216.00 655.00
C 215.56 647.31 221.63 650.25 221.00 656.00
C 223.53 654.84 220.92 650.69 224.00 651.00
C 225.30 651.38 227.86 652.08 227.00 655.00
C 228.64 651.93 229.48 656.11 232.00 653.00
C 230.71 656.15 232.23 656.33 234.00 654.00
C 234.45 657.46 237.69 655.26 237.00 659.00
C 238.22 657.30 239.78 655.66 242.00 655.00
C 243.19 658.41 245.35 657.74 247.00 660.00
C 248.57 656.69 253.56 656.62 254.00 661.00
C 254.69 658.24 259.12 659.25 257.00 662.00
C 259.68 661.13 259.03 658.30 263.00 660.00
C 262.43 659.06 261.85 658.18 262.00 657.00
C 256.95 652.38 251.76 650.65 247.75 644.25 C 243.74 637.85 238.70 632.43 244.23 625.23 C 249.75 618.03 244.92 610.69 242.00 605.00
C 242.18 605.13 237.74 604.48 237.00 604.00
C 233.75 603.89 233.27 604.54 230.00 604.00
C 226.74 603.13 225.37 603.47 223.00 605.00
C 221.84 602.42 218.24 601.93 217.00 603.00 Z"/>
</g>
<g fill="#5D5D5D" fill-opacity="1.00" stroke="None"><path d="
M 681.00 603.00 
C 675.00 604.60 680.14 610.75 681.00 603.00 Z"/>
</g>
<g fill="#8A8A8A" fill-opacity="1.00" stroke="None"><path d="
M 603.00 610.00 
C 602.99 609.23 604.17 607.48 604.00 606.00
C 599.66 603.98 602.58 608.48 603.00 610.00 Z"/>
</g>
<g fill="#C8C8C8" fill-opacity="1.00" stroke="None"><path d="
M 380.00 666.00 
C 381.16 666.91 382.53 667.10 384.00 667.00
C 381.58 663.93 384.86 664.06 387.00 665.00
C 386.79 654.54 375.95 651.78 368.08 647.92 C 360.20 644.07 352.60 640.29 346.30 633.70 C 340.01 627.11 339.95 615.01 333.00 611.00
C 328.37 625.36 339.63 635.83 349.25 644.75 C 358.87 653.66 375.55 652.29 380.00 666.00 Z"/>
</g>
<g fill="#E1E1E1" fill-opacity="1.00" stroke="None"><path d="
M 557.00 641.00 
C 559.84 640.81 559.51 642.65 562.00 643.00
C 562.83 641.53 564.07 639.75 566.00 640.00
C 574.99 633.43 581.62 622.57 578.00 611.00
C 571.83 612.54 572.31 622.85 568.77 627.77 C 565.23 632.69 561.91 637.50 557.00 641.00 Z"/>
</g>
<g fill="#000000" fill-opacity="1.00" stroke="None"><path d="
M 737.00 639.00 
C 734.11 644.42 734.86 649.97 738.00 655.00
C 741.53 660.64 745.43 662.57 751.69 665.31 C 757.96 668.04 765.81 671.19 766.00 661.00
C 766.12 654.37 765.09 647.45 764.00 641.00
C 762.42 631.65 762.22 626.82 759.92 617.08 C 757.63 607.34 749.16 616.16 747.30 622.30 C 745.45 628.44 739.91 633.56 737.00 639.00 Z"/>
</g>
<g fill="#DDDDDD" fill-opacity="1.00" stroke="None"><path d="
M 468.00 629.00 
C 460.47 627.95 449.42 626.10 443.00 630.00
C 451.08 630.78 460.68 632.46 468.00 629.00 Z"/>
</g>
<g fill="#D4D4D4" fill-opacity="1.00" stroke="None"><path d="
M 669.00 634.00 
C 668.78 639.62 662.76 646.73 659.00 651.00
C 663.06 649.32 660.17 652.53 664.00 654.00
C 665.97 653.48 666.66 653.94 667.00 651.00
C 669.80 655.77 672.88 651.02 677.00 654.00
C 677.31 650.68 688.50 651.03 686.00 654.00
C 691.10 649.91 698.49 652.53 703.75 653.59 C 709.01 654.65 715.60 651.46 719.00 657.00
C 722.49 652.16 727.57 659.66 729.00 654.00
C 732.13 656.57 737.37 657.05 738.00 655.00
C 734.86 649.97 734.11 644.42 737.00 639.00
C 734.57 635.36 735.89 640.23 733.00 640.00
C 726.07 634.10 714.16 637.82 705.08 635.94 C 696.01 634.05 686.84 637.81 681.00 633.00
C 679.45 637.12 673.55 633.77 669.00 634.00 Z"/>
</g>
<g fill="#B9B9B9" fill-opacity="1.00" stroke="None"><path d="
M 596.00 639.00 
C 590.98 648.81 588.11 652.24 582.31 662.31 C 576.50 672.37 594.19 670.92 601.75 665.75 C 609.32 660.59 611.85 650.55 614.00 642.00
C 613.23 640.20 602.70 637.53 607.00 641.00
C 602.06 642.18 600.16 636.24 596.00 639.00 Z"/>
</g>
<g fill="#B6B6B6" fill-opacity="1.00" stroke="None"><path d="
M 557.00 641.00 
C 549.56 646.31 543.31 648.52 534.22 652.22 C 525.14 655.93 524.21 664.92 522.00 674.00
C 524.49 675.61 525.53 673.19 528.00 673.00
C 528.11 674.00 527.53 675.73 529.00 676.00
C 531.07 666.49 533.88 656.60 543.92 653.92 C 553.97 651.25 559.56 647.46 566.00 640.00
C 564.07 639.75 562.83 641.53 562.00 643.00
C 559.51 642.65 559.84 640.81 557.00 641.00 Z"/>
</g>
<g fill="#CDCDCD" fill-opacity="1.00" stroke="None"><path d="
M 764.00 641.00 
C 765.09 647.45 766.12 654.37 766.00 661.00
C 767.31 662.75 769.25 660.24 771.00 661.00
C 771.52 655.45 771.00 649.58 771.00 644.00
C 768.24 644.15 770.28 641.37 768.00 640.00
C 765.75 639.26 765.95 643.23 764.00 641.00 Z"/>
</g>
<g fill="#ADADAD" fill-opacity="1.00" stroke="None"><path d="
M 176.00 649.00 
C 172.45 655.46 167.45 663.95 159.00 665.00
C 159.61 668.01 160.49 671.01 161.00 674.00
C 161.63 672.54 166.82 673.15 165.00 676.00
C 166.13 674.11 168.55 671.80 168.00 676.00
C 172.22 670.54 177.15 679.00 181.00 672.00
C 186.04 677.14 193.22 671.88 200.00 672.00
C 201.20 676.89 203.64 672.39 207.00 675.00
C 203.12 672.38 208.20 673.47 208.00 671.00
C 209.18 675.81 211.05 670.82 214.00 670.00
C 214.90 673.63 219.08 673.14 220.00 676.00
C 222.40 676.25 221.02 673.34 223.00 672.00
C 227.29 677.07 232.28 673.06 237.08 675.92 C 241.87 678.79 246.55 682.86 251.00 680.00
C 250.68 681.69 252.32 683.29 254.00 683.00
C 259.85 681.47 263.40 674.95 269.00 673.00
C 268.17 667.43 266.21 660.86 262.00 657.00
C 261.85 658.18 262.43 659.06 263.00 660.00
C 259.03 658.30 259.68 661.13 257.00 662.00
C 259.12 659.25 254.69 658.24 254.00 661.00
C 253.56 656.62 248.57 656.69 247.00 660.00
C 245.35 657.74 243.19 658.41 242.00 655.00
C 239.78 655.66 238.22 657.30 237.00 659.00
C 237.69 655.26 234.45 657.46 234.00 654.00
C 232.23 656.33 230.71 656.15 232.00 653.00
C 229.48 656.11 228.64 651.93 227.00 655.00
C 227.86 652.08 225.30 651.38 224.00 651.00
C 220.92 650.69 223.53 654.84 221.00 656.00
C 221.63 650.25 215.56 647.31 216.00 655.00
C 214.96 650.12 213.18 654.06 213.00 650.00
C 210.68 649.83 207.04 652.34 208.00 648.00
C 204.03 651.42 194.10 641.44 195.00 653.00
C 191.51 652.45 195.53 649.10 193.00 648.00
C 191.71 650.90 186.87 649.29 188.00 646.00
C 186.55 648.06 177.58 645.35 179.00 651.00
C 176.72 651.40 176.56 650.62 176.00 649.00 Z"/>
</g>
<g fill="#ADADAD" fill-opacity="1.00" stroke="None"><path d="
M 659.00 651.00 
C 650.22 654.69 642.25 662.24 642.00 673.00
C 646.38 675.42 650.80 678.97 655.00 682.00
C 659.75 682.22 656.66 677.84 660.00 677.00
C 661.69 678.60 662.92 684.48 663.00 679.00
C 667.19 678.43 674.05 680.34 676.00 677.00
C 678.78 681.77 682.50 675.55 686.25 677.76 C 689.99 679.96 692.97 678.09 698.00 681.00
C 693.81 676.64 701.35 675.91 700.00 681.00
C 701.99 674.66 713.25 673.40 718.00 678.00
C 716.48 674.40 720.84 673.40 719.00 677.00
C 721.21 676.22 722.81 674.06 726.00 675.00
C 727.96 681.10 735.08 671.83 740.00 676.00
C 739.09 669.55 750.05 679.15 752.00 672.00
C 757.87 678.29 761.66 668.13 769.00 671.00
C 769.31 668.42 770.72 663.99 771.00 661.00
C 769.25 660.24 767.31 662.75 766.00 661.00
C 765.81 671.19 757.96 668.04 751.69 665.31 C 745.43 662.57 741.53 660.64 738.00 655.00
C 737.37 657.05 732.13 656.57 729.00 654.00
C 727.57 659.66 722.49 652.16 719.00 657.00
C 715.60 651.46 709.01 654.65 703.75 653.59 C 698.49 652.53 691.10 649.91 686.00 654.00
C 688.50 651.03 677.31 650.68 677.00 654.00
C 672.88 651.02 669.80 655.77 667.00 651.00
C 666.66 653.94 665.97 653.48 664.00 654.00
C 660.17 652.53 663.06 649.32 659.00 651.00 Z"/>
</g>
<g fill="#B3B3B3" fill-opacity="1.00" stroke="None"><path d="
M 301.00 654.00 
C 302.93 659.43 306.96 665.21 312.26 666.74 C 317.55 668.27 327.57 672.77 330.66 668.68 C 333.75 664.58 324.63 656.70 323.00 654.00
C 322.74 657.35 315.41 652.44 313.01 654.01 C 310.61 655.57 302.82 655.93 301.00 654.00 Z"/>
</g>
<g fill="#A5A5A5" fill-opacity="1.00" stroke="None"><path d="
M 380.00 666.00 
C 381.99 672.12 382.48 678.77 384.00 685.00
C 384.47 685.80 389.36 686.25 388.00 689.00
C 389.56 685.46 390.34 690.49 393.00 688.00
C 390.90 680.36 388.93 672.68 387.00 665.00
C 384.86 664.06 381.58 663.93 384.00 667.00
C 382.53 667.10 381.16 666.91 380.00 666.00 Z"/>
</g>
<g fill="#9F9F9F" fill-opacity="1.00" stroke="None"><path d="
M 319.00 711.00 
C 319.40 709.21 321.42 708.13 323.00 708.00
C 325.40 702.25 333.82 695.13 326.75 689.25 C 319.69 683.37 318.17 679.46 313.92 673.08 C 309.66 666.71 298.95 664.27 294.25 670.25 C 289.54 676.23 281.57 681.26 286.69 690.31 C 291.82 699.35 307.14 717.65 319.00 711.00 Z"/>
</g>
<g fill="#9F9F9F" fill-opacity="1.00" stroke="None"><path d="
M 582.00 699.00 
C 595.16 698.62 609.42 698.22 622.00 697.00
C 620.81 696.27 627.88 683.58 623.92 680.08 C 619.96 676.57 619.47 670.57 614.07 667.93 C 608.67 665.28 600.49 668.26 597.30 672.30 C 594.11 676.35 591.51 682.53 588.25 685.25 C 584.99 687.96 577.62 695.99 582.00 699.00 Z"/>
</g>
<g fill="#8E8E8E" fill-opacity="1.00" stroke="None"><path d="
M 161.00 674.00 
C 162.09 680.42 163.34 686.77 165.00 693.00
C 165.71 694.22 168.82 693.61 168.00 696.00
C 177.20 690.05 188.43 700.18 193.00 694.00
C 193.93 697.88 199.38 698.31 199.00 702.00
C 201.16 698.72 204.73 701.77 204.00 705.00
C 204.48 700.71 209.25 700.88 210.00 705.00
C 211.71 703.81 214.12 702.35 214.00 700.00
C 215.29 703.04 215.68 707.04 218.00 702.00
C 219.47 702.23 220.81 703.36 222.00 705.00
C 233.49 698.97 243.60 690.43 254.00 683.00
C 252.32 683.29 250.68 681.69 251.00 680.00
C 246.55 682.86 241.87 678.79 237.08 675.92 C 232.28 673.06 227.29 677.07 223.00 672.00
C 221.02 673.34 222.40 676.25 220.00 676.00
C 219.08 673.14 214.90 673.63 214.00 670.00
C 211.05 670.82 209.18 675.81 208.00 671.00
C 208.20 673.47 203.12 672.38 207.00 675.00
C 203.64 672.39 201.20 676.89 200.00 672.00
C 193.22 671.88 186.04 677.14 181.00 672.00
C 177.15 679.00 172.22 670.54 168.00 676.00
C 168.55 671.80 166.13 674.11 165.00 676.00
C 166.82 673.15 161.63 672.54 161.00 674.00 Z"/>
</g>
<g fill="#8E8E8E" fill-opacity="1.00" stroke="None"><path d="
M 655.00 682.00 
C 665.57 689.62 679.93 696.73 689.00 706.00
C 689.25 706.25 689.88 707.02 690.00 707.00
C 708.62 705.29 726.94 706.93 746.00 706.00
C 735.78 715.34 732.43 735.18 715.00 732.00
C 714.62 734.50 716.52 737.10 717.00 739.00
C 719.12 733.19 728.80 741.89 732.22 739.78 C 735.65 737.67 744.16 738.37 746.00 737.00
C 759.03 716.81 766.13 694.75 769.00 671.00
C 761.66 668.13 757.87 678.29 752.00 672.00
C 750.05 679.15 739.09 669.55 740.00 676.00
C 735.08 671.83 727.96 681.10 726.00 675.00
C 722.81 674.06 721.21 676.22 719.00 677.00
C 720.84 673.40 716.48 674.40 718.00 678.00
C 713.25 673.40 701.99 674.66 700.00 681.00
C 701.35 675.91 693.81 676.64 698.00 681.00
C 692.97 678.09 689.99 679.96 686.25 677.76 C 682.50 675.55 678.78 681.77 676.00 677.00
C 674.05 680.34 667.19 678.43 663.00 679.00
C 662.92 684.48 661.69 678.60 660.00 677.00
C 656.66 677.84 659.75 682.22 655.00 682.00 Z"/>
</g>
<g fill="#8C8C8C" fill-opacity="1.00" stroke="None"><path d="
M 522.00 674.00 
C 520.81 678.87 518.33 685.00 517.93 689.93 C 517.52 694.85 512.18 701.09 514.00 706.00
C 513.47 705.86 516.28 707.66 516.00 707.00
C 515.79 704.80 516.20 702.25 518.00 701.00
C 517.71 705.41 515.48 709.87 517.00 714.00
C 522.86 702.75 526.22 688.78 529.00 676.00
C 527.53 675.73 528.11 674.00 528.00 673.00
C 525.53 673.19 524.49 675.61 522.00 674.00 Z"/>
</g>
<g fill="#9D9D9D" fill-opacity="1.00" stroke="None"><path d="
M 330.00 676.00 
C 318.82 675.19 327.35 691.62 337.31 689.65 C 347.27 687.68 338.72 676.63 330.00 676.00 Z"/>
</g>
<g fill="#A2A2A2" fill-opacity="1.00" stroke="None"><path d="
M 585.00 676.00 
C 578.07 672.90 563.71 684.08 570.92 689.07 C 578.14 694.06 591.50 678.91 585.00 676.00 Z"/>
</g>
<g fill="#828282" fill-opacity="1.00" stroke="None"><path d="
M 393.00 688.00 
C 390.34 690.49 389.56 685.46 388.00 689.00
C 389.36 686.25 384.47 685.80 384.00 685.00
C 387.77 694.42 388.15 705.85 394.00 714.00
C 395.72 710.26 391.74 701.15 397.00 707.00
C 396.52 700.44 394.71 694.20 393.00 688.00 Z"/>
</g>
<g fill="#FBFBFB" fill-opacity="1.00" stroke="None"><path d="
M 538.00 712.00 
C 536.02 717.03 536.66 724.48 537.00 730.00
C 537.28 734.48 536.70 733.47 536.00 738.00
C 535.37 742.06 535.78 745.98 535.00 750.00
C 534.59 752.13 534.59 755.14 532.00 756.00
C 532.38 762.05 537.24 765.97 542.00 769.00
C 539.41 771.59 536.20 771.28 536.00 776.00
C 535.56 782.23 538.41 790.97 537.00 798.00
C 538.72 795.01 537.83 789.61 540.00 796.00
C 544.45 791.79 550.65 792.68 555.00 796.00
C 551.00 789.13 560.21 800.01 562.00 793.00
C 562.11 793.96 561.48 798.97 563.00 797.00
C 565.08 791.44 561.44 783.75 563.00 778.00
C 571.67 778.00 580.33 778.00 589.00 778.00
C 590.21 777.83 592.19 777.07 594.00 777.00
C 598.57 776.82 607.32 778.61 610.25 774.25 C 613.17 769.88 613.84 765.66 616.00 761.00
C 617.29 758.21 619.93 755.57 621.00 753.00
C 621.53 751.73 620.95 750.41 621.00 750.00
C 617.72 748.18 612.13 753.23 608.00 753.00 C 603.87 752.77 597.64 752.09 593.00 752.00 C 588.36 751.91 581.81 752.00 577.00 752.00
C 572.37 752.00 567.20 752.72 563.00 751.00
C 564.38 745.95 562.12 739.75 563.00 734.00
C 570.95 731.83 578.84 734.16 587.00 734.00
C 596.98 735.96 606.63 736.00 618.00 736.00
C 619.47 736.00 621.60 736.40 623.00 736.00
C 634.26 722.19 644.06 705.99 656.00 693.00
C 645.07 696.61 633.62 695.88 622.00 697.00
C 609.42 698.22 595.16 698.62 582.00 699.00
C 579.94 699.06 576.93 699.22 574.00 699.00
C 567.22 698.48 568.00 698.08 564.00 694.00
C 554.56 689.88 554.72 692.59 550.30 699.30 C 545.88 706.01 543.07 706.19 538.00 712.00 Z"/>
</g>
<g fill="#767676" fill-opacity="1.00" stroke="None"><path d="
M 170.00 707.00 
C 170.61 707.90 172.76 708.21 172.00 710.00
C 173.69 706.29 176.92 711.65 177.00 708.00
C 179.88 705.99 187.99 705.34 195.00 706.00 C 202.01 706.66 210.90 705.14 218.00 706.00 C 225.10 706.86 231.55 707.05 239.00 707.00 C 246.45 706.95 254.51 706.71 262.00 707.00
C 250.91 705.42 232.31 709.51 222.00 705.00
C 220.81 703.36 219.47 702.23 218.00 702.00
C 215.68 707.04 215.29 703.04 214.00 700.00
C 214.12 702.35 211.71 703.81 210.00 705.00
C 209.25 700.88 204.48 700.71 204.00 705.00
C 204.73 701.77 201.16 698.72 199.00 702.00
C 199.38 698.31 193.93 697.88 193.00 694.00
C 188.43 700.18 177.20 690.05 168.00 696.00
C 168.82 693.61 165.71 694.22 165.00 693.00
C 166.25 697.69 168.24 702.53 170.00 707.00 Z"/>
</g>
<g fill="#929292" fill-opacity="1.00" stroke="None"><path d="
M 324.00 708.00 
C 323.54 709.11 320.33 713.16 319.00 713.00
C 317.62 718.97 318.68 721.16 321.00 726.00
C 320.88 725.45 320.24 723.25 321.00 722.00
C 321.98 726.26 327.56 722.43 328.00 727.00
C 329.00 724.10 329.24 718.24 332.00 717.00
C 334.14 720.85 333.96 726.52 338.00 729.00
C 336.46 725.85 338.34 726.05 338.00 724.00
C 332.24 714.29 333.98 710.09 343.25 704.25 C 352.52 698.41 354.77 712.67 359.25 718.75 C 363.73 724.83 369.08 733.53 373.00 740.00
C 372.09 736.69 371.78 730.26 367.00 728.00
C 369.32 725.33 367.24 725.38 369.00 721.00
C 373.21 721.70 373.18 722.95 375.00 726.00
C 374.15 721.14 379.65 720.66 377.00 716.00
C 375.66 718.05 374.44 716.95 373.00 719.00
C 372.73 713.70 372.66 719.16 370.00 719.00
C 373.28 715.07 370.52 711.37 366.00 714.00
C 366.66 712.07 369.39 711.33 369.00 709.00
C 363.14 703.79 355.95 692.52 347.02 694.02 C 338.10 695.53 331.50 703.33 324.00 708.00 Z"/>
</g>
<g fill="#A7A7A7" fill-opacity="1.00" stroke="None"><path d="
M 574.00 699.00 
C 571.12 698.04 567.04 695.33 564.00 694.00
C 568.00 698.08 567.22 698.48 574.00 699.00 Z"/>
</g>
<g fill="#F4F4F4" fill-opacity="1.00" stroke="None"><path d="
M 338.00 724.00 
C 342.44 731.48 347.74 738.90 351.00 747.00
C 354.99 756.92 358.13 767.37 363.00 777.00
C 359.46 779.02 354.95 777.55 351.00 778.00
C 348.40 778.18 337.54 781.20 337.08 776.92 C 336.63 772.63 340.58 767.49 342.00 764.00
C 342.95 761.67 343.14 757.05 345.31 755.31 C 347.47 753.56 347.42 747.23 349.00 746.00
C 344.22 742.36 341.55 733.92 338.00 729.00
C 333.96 726.52 334.14 720.85 332.00 717.00
C 329.24 718.24 329.00 724.10 328.00 727.00
C 327.02 729.83 325.27 731.67 324.00 734.00
C 312.31 755.42 305.14 781.27 296.00 804.00
C 294.76 807.08 293.53 810.01 292.00 813.00
C 290.68 817.52 286.76 820.29 284.00 824.00
C 294.91 821.95 306.69 823.46 318.00 823.00
C 321.91 810.28 328.51 798.48 333.00 786.00
C 339.66 788.09 339.16 797.23 340.00 803.00
C 351.29 804.89 363.33 803.65 375.00 804.00
C 378.70 814.44 379.49 823.00 392.00 823.00
C 396.41 823.00 401.34 823.65 405.00 824.00
C 409.33 824.00 413.67 824.00 418.00 824.00
C 415.01 822.41 413.76 818.62 412.00 816.00
C 401.38 800.21 395.76 781.14 387.00 764.00
C 383.61 757.36 380.25 751.14 376.00 745.00
C 374.93 743.46 373.96 741.58 373.00 740.00
C 369.08 733.53 363.73 724.83 359.25 718.75 C 354.77 712.67 352.52 698.41 343.25 704.25 C 333.98 710.09 332.24 714.29 338.00 724.00 Z"/>
</g>
<g fill="#F6F6F6" fill-opacity="1.00" stroke="None"><path d="
M 412.00 747.00 
C 412.20 749.10 413.00 752.23 413.00 755.00
C 413.00 772.68 407.99 793.33 417.00 809.00
C 425.34 823.49 442.28 824.84 458.00 824.00 C 473.72 823.16 494.40 827.04 508.00 818.00
C 513.06 812.53 506.04 802.41 510.00 796.00
C 504.15 798.21 497.26 796.42 491.00 797.00
C 479.14 798.61 470.14 794.86 458.00 797.00 C 445.86 799.14 440.61 792.70 441.00 782.00 C 441.39 771.30 442.45 759.95 441.92 751.08 C 441.40 742.20 432.48 729.79 444.78 728.78 C 457.07 727.77 464.20 727.90 475.00 727.00 C 485.80 726.10 493.66 727.71 502.00 732.00
C 507.50 730.10 506.30 722.51 508.08 718.08 C 509.86 713.65 514.04 711.28 516.00 707.00
C 516.28 707.66 513.47 705.86 514.00 706.00
C 506.33 704.03 497.16 703.57 489.00 704.00 C 480.84 704.43 471.68 702.80 464.00 703.00 C 456.32 703.20 445.86 701.51 439.07 702.07 C 432.29 702.64 420.41 701.40 414.70 703.70 C 408.99 706.00 416.28 716.38 412.99 721.99 C 409.70 727.61 411.38 740.62 412.00 747.00 Z"/>
</g>
<g fill="#FAFAFA" fill-opacity="1.00" stroke="None"><path d="
M 177.00 708.00 
C 187.22 712.21 186.00 727.21 186.00 736.00
C 184.83 743.98 189.41 755.91 181.00 760.00
C 184.97 762.85 186.98 767.51 192.00 769.00
C 182.23 770.79 186.00 787.31 186.00 796.00
C 186.16 797.63 187.94 800.67 187.00 803.00
C 186.96 798.90 193.05 797.55 188.00 795.00
C 191.04 795.25 195.86 796.07 196.00 800.00
C 200.38 798.45 201.93 794.65 206.00 799.00
C 203.92 793.33 211.90 793.31 208.00 798.00
C 209.50 797.15 211.21 798.16 212.00 797.00
C 209.47 791.49 213.89 782.80 212.00 777.00
C 213.99 777.28 215.78 778.48 218.00 778.00
C 229.16 777.41 242.07 775.65 254.00 777.00 C 265.93 778.35 264.64 796.37 253.00 798.00
C 246.62 798.89 239.45 798.00 233.00 798.00
C 229.58 798.33 221.96 799.01 222.00 803.00
C 224.36 801.88 232.44 800.29 230.00 806.00
C 235.13 802.15 234.35 807.38 239.00 807.00
C 236.08 802.95 244.33 803.24 240.00 807.00
C 243.92 804.51 253.60 809.23 251.00 801.00
C 258.91 796.80 268.86 803.15 271.00 811.00
C 273.52 810.87 272.87 807.98 275.00 808.00
C 278.51 808.78 283.30 809.68 283.00 814.00
C 283.75 813.04 284.37 812.25 285.00 811.00
C 288.75 803.54 288.00 795.47 288.00 787.00
C 288.00 779.39 284.58 764.14 276.00 765.00
C 277.07 761.89 282.71 762.05 284.25 758.25 C 285.79 754.46 287.62 750.34 288.00 746.00
C 289.75 726.12 284.28 707.85 262.00 707.00
C 254.51 706.71 246.45 706.95 239.00 707.00 C 231.55 707.05 225.10 706.86 218.00 706.00 C 210.90 705.14 202.01 706.66 195.00 706.00 C 187.99 705.34 179.88 705.99 177.00 708.00 Z"/>
</g>
<g fill="#FBFBFB" fill-opacity="1.00" stroke="None"><path d="
M 639.00 735.00 
C 639.02 735.50 639.00 736.50 639.00 737.00
C 639.00 741.66 638.91 746.34 639.00 751.00
C 639.60 781.04 672.27 777.00 694.00 777.00
C 701.90 777.00 708.66 775.31 713.00 782.00
C 714.63 784.52 716.12 787.98 716.00 792.00
C 719.39 792.63 726.35 788.26 725.00 794.00
C 729.47 787.55 727.23 795.13 733.00 791.00
C 726.51 789.37 737.02 786.72 738.00 790.00
C 739.49 783.64 737.98 775.83 740.00 770.00
C 738.61 764.88 735.25 759.56 731.00 756.00
C 728.50 753.90 725.07 752.76 722.00 752.00
C 707.67 748.45 691.15 753.38 676.00 752.00
C 672.24 751.66 670.21 751.19 668.00 748.00
C 660.16 736.68 670.18 730.95 681.00 732.00 C 691.82 733.05 704.10 732.42 715.00 732.00
C 732.43 735.18 735.78 715.34 746.00 706.00
C 726.94 706.93 708.62 705.29 690.00 707.00
C 687.74 707.21 685.27 707.08 683.00 707.00
C 681.36 706.94 678.92 706.05 678.00 706.00
C 670.13 706.67 654.19 704.74 649.75 711.75 C 645.32 718.77 638.66 726.47 639.00 735.00 Z"/>
</g>
<g fill="#353535" fill-opacity="1.00" stroke="None"><path d="
M 683.00 707.00 
C 682.93 706.99 683.00 706.00 683.00 706.00
C 681.35 706.00 679.64 705.86 678.00 706.00
C 678.92 706.05 681.36 706.94 683.00 707.00 Z"/>
</g>
<g fill="#646464" fill-opacity="1.00" stroke="None"><path d="
M 683.00 707.00 
C 685.27 707.08 687.74 707.21 690.00 707.00
C 689.88 707.02 689.25 706.25 689.00 706.00
C 687.22 705.59 684.83 706.00 683.00 706.00
C 683.00 706.00 682.93 706.99 683.00 707.00 Z"/>
</g>
<g fill="#5A5A5A" fill-opacity="1.00" stroke="None"><path d="
M 186.00 736.00 
C 186.00 727.21 187.22 712.21 177.00 708.00
C 176.92 711.65 173.69 706.29 172.00 710.00
C 172.76 708.21 170.61 707.90 170.00 707.00
C 172.01 712.12 175.52 717.63 177.23 722.77 C 178.94 727.91 184.56 731.44 186.00 736.00 Z"/>
</g>
<g fill="#515151" fill-opacity="1.00" stroke="None"><path d="
M 319.00 711.00 
C 318.89 711.48 319.11 712.53 319.00 713.00
C 320.33 713.16 323.54 709.11 324.00 708.00
C 324.00 708.00 323.50 707.96 323.00 708.00
C 321.42 708.13 319.40 709.21 319.00 711.00 Z"/>
</g>
<g fill="#7C7C7C" fill-opacity="1.00" stroke="None"><path d="
M 373.00 740.00 
C 373.96 741.58 374.93 743.46 376.00 745.00
C 375.73 741.11 379.73 741.92 381.00 739.00
C 380.13 743.43 381.69 743.31 385.00 744.00
C 386.24 741.06 380.24 741.42 384.09 740.08 C 387.94 738.74 388.55 737.93 392.00 740.00
C 393.23 735.57 393.80 739.37 397.00 739.00
C 395.53 737.22 398.04 734.93 396.00 733.00
C 386.90 725.22 377.93 716.93 369.00 709.00
C 369.39 711.33 366.66 712.07 366.00 714.00
C 370.52 711.37 373.28 715.07 370.00 719.00
C 372.66 719.16 372.73 713.70 373.00 719.00
C 374.44 716.95 375.66 718.05 377.00 716.00
C 379.65 720.66 374.15 721.14 375.00 726.00
C 373.18 722.95 373.21 721.70 369.00 721.00
C 367.24 725.38 369.32 725.33 367.00 728.00
C 371.78 730.26 372.09 736.69 373.00 740.00 Z"/>
</g>
<g fill="#878787" fill-opacity="1.00" stroke="None"><path d="
M 518.00 731.00 
C 522.20 729.75 529.68 731.86 534.00 729.00
C 535.77 729.23 536.71 733.80 537.00 730.00
C 536.66 724.48 536.02 717.03 538.00 712.00
C 532.25 718.59 524.55 725.29 518.00 731.00 Z"/>
</g>
<g fill="#6B6B6B" fill-opacity="1.00" stroke="None"><path d="
M 321.00 726.00 
C 321.53 728.39 323.95 731.76 324.00 734.00
C 325.27 731.67 327.02 729.83 328.00 727.00
C 327.56 722.43 321.98 726.26 321.00 722.00
C 320.24 723.25 320.88 725.45 321.00 726.00 Z"/>
</g>
<g fill="#7B7B7B" fill-opacity="1.00" stroke="None"><path d="
M 338.00 729.00 
C 341.55 733.92 344.22 742.36 349.00 746.00
C 349.33 746.25 350.83 746.76 351.00 747.00
C 347.74 738.90 342.44 731.48 338.00 724.00
C 338.34 726.05 336.46 725.85 338.00 729.00 Z"/>
</g>
<g fill="#737373" fill-opacity="1.00" stroke="None"><path d="
M 518.00 731.00 
C 514.94 733.66 511.97 736.03 509.00 739.00
C 514.14 736.75 521.26 738.60 528.00 736.00
C 525.68 741.46 532.87 739.30 533.00 735.00
C 534.55 735.59 533.40 738.67 536.00 738.00
C 536.70 733.47 537.28 734.48 537.00 730.00
C 536.71 733.80 535.77 729.23 534.00 729.00
C 529.68 731.86 522.20 729.75 518.00 731.00 Z"/>
</g>
<g fill="#000000" fill-opacity="1.00" stroke="None"><path d="
M 235.00 752.00 
C 243.76 749.83 252.14 741.61 261.00 739.00
C 260.32 728.15 247.00 732.93 239.00 732.00 C 231.00 731.07 219.82 733.50 212.00 731.00
C 213.64 738.14 211.68 744.62 212.00 752.00
C 219.67 752.00 227.33 752.00 235.00 752.00 Z"/>
</g>
<g fill="#000000" fill-opacity="1.00" stroke="None"><path d="
M 668.00 748.00 
C 668.83 748.74 675.03 751.76 676.00 752.00
C 691.15 753.38 707.67 748.45 722.00 752.00
C 718.16 749.20 718.02 743.00 717.00 739.00
C 716.52 737.10 714.62 734.50 715.00 732.00
C 704.10 732.42 691.82 733.05 681.00 732.00 C 670.18 730.95 660.16 736.68 668.00 748.00 Z"/>
</g>
<g fill="#646464" fill-opacity="1.00" stroke="None"><path d="
M 376.00 745.00 
C 380.25 751.14 383.61 757.36 387.00 764.00
C 386.80 763.10 386.51 754.53 382.00 752.00
C 386.26 750.07 389.82 754.34 394.00 751.00
C 396.21 752.69 401.93 759.28 400.00 752.00
C 402.35 752.55 406.08 758.39 404.00 753.00
C 407.18 756.26 409.04 751.51 413.00 755.00
C 413.00 752.23 412.20 749.10 412.00 747.00
C 410.26 744.23 400.06 736.47 396.00 733.00
C 398.04 734.93 395.53 737.22 397.00 739.00
C 393.80 739.37 393.23 735.57 392.00 740.00
C 388.55 737.93 387.94 738.74 384.09 740.08 C 380.24 741.42 386.24 741.06 385.00 744.00
C 381.69 743.31 380.13 743.43 381.00 739.00
C 379.73 741.92 375.73 741.11 376.00 745.00 Z"/>
</g>
<g fill="#626262" fill-opacity="1.00" stroke="None"><path d="
M 577.00 752.00 
C 579.65 745.78 584.40 740.43 587.00 734.00
C 578.84 734.16 570.95 731.83 563.00 734.00
C 562.12 739.75 564.38 745.95 563.00 751.00
C 567.20 752.72 572.37 752.00 577.00 752.00 Z"/>
</g>
<g fill="#5F5F5F" fill-opacity="1.00" stroke="None"><path d="
M 509.00 739.00 
C 504.46 743.54 499.59 748.41 495.00 753.00
C 498.79 750.78 505.05 751.86 507.00 749.00
C 509.65 748.76 510.73 751.92 511.00 754.00
C 512.18 751.51 517.22 753.67 517.00 749.00
C 518.56 752.29 524.01 748.67 526.00 753.00
C 526.03 745.46 533.66 753.04 535.00 750.00
C 535.78 745.98 535.37 742.06 536.00 738.00
C 533.40 738.67 534.55 735.59 533.00 735.00
C 532.87 739.30 525.68 741.46 528.00 736.00
C 521.26 738.60 514.14 736.75 509.00 739.00 Z"/>
</g>
<g fill="#686868" fill-opacity="1.00" stroke="None"><path d="
M 621.00 750.00 
C 620.95 750.41 621.53 751.73 621.00 753.00
C 620.81 753.21 624.23 751.71 623.00 748.00
C 629.26 749.61 630.29 749.13 638.00 748.00
C 637.68 744.30 637.74 739.96 639.00 737.00
C 639.00 736.50 639.02 735.50 639.00 735.00
C 632.43 731.88 621.66 744.82 621.00 750.00 Z"/>
</g>
<g fill="#6F6F6F" fill-opacity="1.00" stroke="None"><path d="
M 623.00 736.00 
C 621.60 736.40 619.47 736.00 618.00 736.00
C 619.98 736.17 620.66 737.21 623.00 736.00 Z"/>
</g>
<g fill="#666666" fill-opacity="1.00" stroke="None"><path d="
M 717.00 739.00 
C 718.02 743.00 718.16 749.20 722.00 752.00
C 725.07 752.76 728.50 753.90 731.00 756.00
C 733.75 755.70 736.92 749.25 739.08 747.08 C 741.24 744.91 744.19 739.80 746.00 737.00
C 744.16 738.37 735.65 737.67 732.22 739.78 C 728.80 741.89 719.12 733.19 717.00 739.00 Z"/>
</g>
<g fill="#9F9F9F" fill-opacity="1.00" stroke="None"><path d="
M 638.00 748.00 
C 638.11 749.33 638.84 750.23 639.00 751.00
C 638.91 746.34 639.00 741.66 639.00 737.00
C 637.74 739.96 637.68 744.30 638.00 748.00 Z"/>
</g>
<g fill="#454545" fill-opacity="1.00" stroke="None"><path d="
M 235.00 752.00 
C 246.71 752.00 262.86 755.62 261.00 739.00
C 252.14 741.61 243.76 749.83 235.00 752.00 Z"/>
</g>
<g fill="#4D4D4D" fill-opacity="1.00" stroke="None"><path d="
M 276.00 765.00 
C 279.44 764.66 285.70 768.52 288.75 764.75 C 291.81 760.99 296.99 760.04 295.92 755.08 C 294.84 750.12 289.39 750.13 288.00 746.00
C 287.62 750.34 285.79 754.46 284.25 758.25 C 282.71 762.05 277.07 761.89 276.00 765.00 Z"/>
</g>
<g fill="#525252" fill-opacity="1.00" stroke="None"><path d="
M 342.00 764.00 
C 342.86 768.48 351.37 772.42 351.00 778.00
C 354.95 777.55 359.46 779.02 363.00 777.00
C 358.13 767.37 354.99 756.92 351.00 747.00
C 350.83 746.76 349.33 746.25 349.00 746.00
C 347.42 747.23 347.47 753.56 345.31 755.31 C 343.14 757.05 342.95 761.67 342.00 764.00 Z"/>
</g>
<g fill="#4C4C4C" fill-opacity="1.00" stroke="None"><path d="
M 621.00 753.00 
C 619.93 755.57 617.29 758.21 616.00 761.00
C 623.23 766.26 630.20 767.54 639.00 765.00
C 636.15 777.90 620.45 785.87 616.00 798.00
C 620.54 797.60 625.41 796.50 630.00 796.00
C 628.77 801.93 628.79 808.05 630.00 814.00
C 633.47 813.55 637.94 814.91 641.00 813.00
C 649.46 799.33 654.65 798.00 671.00 798.00
C 675.12 796.48 677.77 788.76 682.25 787.25 C 686.73 785.74 690.06 778.45 694.00 777.00
C 672.27 777.00 639.60 781.04 639.00 751.00
C 638.84 750.23 638.11 749.33 638.00 748.00
C 630.29 749.13 629.26 749.61 623.00 748.00
C 624.23 751.71 620.81 753.21 621.00 753.00 Z"/>
</g>
<g fill="#595959" fill-opacity="1.00" stroke="None"><path d="
M 676.00 752.00 
C 675.03 751.76 668.83 748.74 668.00 748.00
C 670.21 751.19 672.24 751.66 676.00 752.00 Z"/>
</g>
<g fill="#4D4D4D" fill-opacity="1.00" stroke="None"><path d="
M 495.00 753.00 
C 489.68 758.32 482.09 764.95 483.00 773.00 C 483.91 781.05 481.34 794.07 491.00 797.00
C 497.26 796.42 504.15 798.21 510.00 796.00
C 506.04 802.41 513.06 812.53 508.00 818.00
C 512.06 815.30 518.45 810.99 521.92 807.92 C 525.39 804.85 534.26 802.82 536.00 799.00
C 536.00 791.67 534.80 783.21 536.00 776.00
C 536.20 771.28 539.41 771.59 542.00 769.00
C 537.24 765.97 532.38 762.05 532.00 756.00
C 534.59 755.14 534.59 752.13 535.00 750.00
C 533.66 753.04 526.03 745.46 526.00 753.00
C 524.01 748.67 518.56 752.29 517.00 749.00
C 517.22 753.67 512.18 751.51 511.00 754.00
C 510.73 751.92 509.65 748.76 507.00 749.00
C 505.05 751.86 498.79 750.78 495.00 753.00 Z"/>
</g>
<g fill="#4E4E4E" fill-opacity="1.00" stroke="None"><path d="
M 387.00 764.00 
C 395.76 781.14 401.38 800.21 412.00 816.00
C 412.05 813.85 415.85 810.49 417.00 809.00
C 407.99 793.33 413.00 772.68 413.00 755.00
C 409.04 751.51 407.18 756.26 404.00 753.00
C 406.08 758.39 402.35 752.55 400.00 752.00
C 401.93 759.28 396.21 752.69 394.00 751.00
C 389.82 754.34 386.26 750.07 382.00 752.00
C 386.51 754.53 386.80 763.10 387.00 764.00 Z"/>
</g>
<g fill="#000000" fill-opacity="1.00" stroke="None"><path d="
M 594.00 777.00 
C 592.80 777.17 590.81 777.93 589.00 778.00
C 580.33 778.00 571.67 778.00 563.00 778.00
C 561.44 783.75 565.08 791.44 563.00 797.00
C 565.61 800.70 575.44 797.11 580.00 798.00 C 584.56 798.89 592.78 797.84 598.00 798.00 C 603.22 798.16 610.64 798.47 616.00 798.00
C 620.45 785.87 636.15 777.90 639.00 765.00
C 630.20 767.54 623.23 766.26 616.00 761.00
C 613.84 765.66 613.17 769.88 610.25 774.25 C 607.32 778.61 598.57 776.82 594.00 777.00 Z"/>
</g>
<g fill="#000000" fill-opacity="1.00" stroke="None"><path d="
M 351.00 778.00 
C 351.37 772.42 342.86 768.48 342.00 764.00
C 340.58 767.49 336.63 772.63 337.08 776.92 C 337.54 781.20 348.40 778.18 351.00 778.00 Z"/>
</g>
<g fill="#DCDCDC" fill-opacity="1.00" stroke="None"><path d="
M 713.00 782.00 
C 718.78 804.98 684.65 798.00 671.00 798.00
C 654.65 798.00 649.46 799.33 641.00 813.00
C 638.97 816.28 636.98 821.06 633.00 822.00
C 632.39 819.22 630.93 816.72 630.00 814.00
C 628.79 808.05 628.77 801.93 630.00 796.00
C 625.41 796.50 620.54 797.60 616.00 798.00
C 610.64 798.47 603.22 798.16 598.00 798.00 C 592.78 797.84 584.56 798.89 580.00 798.00 C 575.44 797.11 565.61 800.70 563.00 797.00
C 561.48 798.97 562.11 793.96 562.00 793.00
C 560.21 800.01 551.00 789.13 555.00 796.00
C 550.65 792.68 544.45 791.79 540.00 796.00
C 537.83 789.61 538.72 795.01 537.00 798.00
C 538.41 790.97 535.56 782.23 536.00 776.00
C 534.80 783.21 536.00 791.67 536.00 799.00
C 537.43 808.65 533.55 816.47 529.00 824.00
C 531.05 822.59 533.59 823.01 536.00 823.00
C 538.19 822.99 540.53 823.83 542.00 824.00
C 545.00 824.08 548.00 824.00 551.00 824.00
C 558.33 823.29 566.97 823.00 575.00 823.00
C 579.33 823.00 583.67 823.00 588.00 823.00
C 598.67 823.00 609.33 823.00 620.00 823.00
C 625.94 823.00 631.25 823.78 637.00 824.00
C 639.98 823.82 644.03 823.71 647.00 824.00
C 651.67 824.00 656.33 824.00 661.00 824.00
C 670.43 823.09 681.64 823.09 691.00 824.00
C 709.15 824.00 738.68 827.39 740.00 803.00
C 740.16 800.01 740.78 796.29 741.00 794.00
C 741.00 786.18 742.00 777.38 740.00 770.00
C 737.98 775.83 739.49 783.64 738.00 790.00
C 737.02 786.72 726.51 789.37 733.00 791.00
C 727.23 795.13 729.47 787.55 725.00 794.00
C 726.35 788.26 719.39 792.63 716.00 792.00
C 716.12 787.98 714.63 784.52 713.00 782.00 Z"/>
</g>
<g fill="#000000" fill-opacity="1.00" stroke="None"><path d="
M 212.00 797.00 
C 212.73 797.08 213.23 797.84 214.00 798.00
C 215.84 797.99 219.40 796.93 222.00 797.00
C 224.12 797.06 226.57 797.84 228.00 798.00
C 229.67 798.00 231.33 798.00 233.00 798.00
C 239.45 798.00 246.62 798.89 253.00 798.00
C 242.75 791.76 231.18 778.94 218.00 778.00
C 215.78 778.48 213.99 777.28 212.00 777.00
C 213.89 782.80 209.47 791.49 212.00 797.00 Z"/>
</g>
<g fill="#5F5F5F" fill-opacity="1.00" stroke="None"><path d="
M 218.00 778.00 
C 231.18 778.94 242.75 791.76 253.00 798.00
C 264.64 796.37 265.93 778.35 254.00 777.00 C 242.07 775.65 229.16 777.41 218.00 778.00 Z"/>
</g>
<g fill="#7B7B7B" fill-opacity="1.00" stroke="None"><path d="
M 589.00 778.00 
C 590.81 777.93 592.80 777.17 594.00 777.00
C 592.19 777.07 590.21 777.83 589.00 778.00 Z"/>
</g>
<g fill="#000000" fill-opacity="1.00" stroke="None"><path d="
M 671.00 798.00 
C 684.65 798.00 718.78 804.98 713.00 782.00
C 708.66 775.31 701.90 777.00 694.00 777.00
C 690.06 778.45 686.73 785.74 682.25 787.25 C 677.77 788.76 675.12 796.48 671.00 798.00 Z"/>
</g>
<g fill="#AAAAAA" fill-opacity="1.00" stroke="None"><path d="
M 338.00 783.00 
C 335.11 786.91 339.21 789.27 338.00 783.00 Z"/>
</g>
<g fill="#5A5A5A" fill-opacity="1.00" stroke="None"><path d="
M 285.00 811.00 
C 287.01 811.30 289.82 813.90 292.00 813.00
C 293.53 810.01 294.76 807.08 296.00 804.00
C 295.73 798.56 289.28 792.18 288.00 787.00
C 288.00 795.47 288.75 803.54 285.00 811.00 Z"/>
</g>
<g fill="#DDDDDD" fill-opacity="1.00" stroke="None"><path d="
M 186.00 796.00 
C 186.45 806.16 187.04 816.80 179.00 824.00
C 198.92 822.32 219.69 823.00 240.00 823.00
C 244.00 823.00 248.00 823.00 252.00 823.00
C 263.97 823.00 275.11 824.10 283.00 814.00
C 283.30 809.68 278.51 808.78 275.00 808.00
C 272.87 807.98 273.52 810.87 271.00 811.00
C 268.86 803.15 258.91 796.80 251.00 801.00
C 253.60 809.23 243.92 804.51 240.00 807.00
C 244.33 803.24 236.08 802.95 239.00 807.00
C 234.35 807.38 235.13 802.15 230.00 806.00
C 232.44 800.29 224.36 801.88 222.00 803.00
C 221.96 799.01 229.58 798.33 233.00 798.00
C 231.33 798.00 229.67 798.00 228.00 798.00
C 226.00 798.00 224.00 798.00 222.00 798.00
C 219.52 798.00 216.42 798.51 214.00 798.00
C 213.23 797.84 212.73 797.08 212.00 797.00
C 211.21 798.16 209.50 797.15 208.00 798.00
C 211.90 793.31 203.92 793.33 206.00 799.00
C 201.93 794.65 200.38 798.45 196.00 800.00
C 195.86 796.07 191.04 795.25 188.00 795.00
C 193.05 797.55 186.96 798.90 187.00 803.00
C 187.94 800.67 186.16 797.63 186.00 796.00 Z"/>
</g>
<g fill="#6D6D6D" fill-opacity="1.00" stroke="None"><path d="
M 740.00 803.00 
C 740.41 800.47 741.00 797.22 741.00 794.00
C 740.78 796.29 740.16 800.01 740.00 803.00 Z"/>
</g>
<g fill="#646464" fill-opacity="1.00" stroke="None"><path d="
M 214.00 798.00 
C 216.42 798.51 219.52 798.00 222.00 798.00
C 221.90 797.98 222.00 797.00 222.00 797.00
C 219.40 796.93 215.84 797.99 214.00 798.00 Z"/>
</g>
<g fill="#353535" fill-opacity="1.00" stroke="None"><path d="
M 222.00 798.00 
C 224.00 798.00 226.00 798.00 228.00 798.00
C 226.57 797.84 224.12 797.06 222.00 797.00
C 222.00 797.00 221.90 797.98 222.00 798.00 Z"/>
</g>
<g fill="#000000" fill-opacity="1.00" stroke="None"><path d="
M 630.00 814.00 
C 630.93 816.72 632.39 819.22 633.00 822.00
C 636.98 821.06 638.97 816.28 641.00 813.00
C 637.94 814.91 633.47 813.55 630.00 814.00 Z"/>
</g>
<g fill="#565656" fill-opacity="1.00" stroke="None"><path d="
M 252.00 823.00 
C 248.00 823.00 244.00 823.00 240.00 823.00
C 243.71 823.36 248.23 823.37 252.00 823.00 Z"/>
</g>
<g fill="#6A6A6A" fill-opacity="1.00" stroke="None"><path d="
M 405.00 824.00 
C 401.34 823.65 396.41 823.00 392.00 823.00
C 395.66 823.35 400.59 824.00 405.00 824.00 Z"/>
</g>
<g fill="#6A6A6A" fill-opacity="1.00" stroke="None"><path d="
M 542.00 824.00 
C 540.53 823.83 538.19 822.99 536.00 823.00
C 537.32 823.11 539.96 823.94 542.00 824.00 Z"/>
</g>
<g fill="#787878" fill-opacity="1.00" stroke="None"><path d="
M 551.00 824.00 
C 559.03 824.00 567.67 823.71 575.00 823.00
C 566.97 823.00 558.33 823.29 551.00 824.00 Z"/>
</g>
<g fill="#737373" fill-opacity="1.00" stroke="None"><path d="
M 620.00 823.00 
C 609.33 823.00 598.67 823.00 588.00 823.00
C 597.99 823.97 609.94 823.97 620.00 823.00 Z"/>
</g>
<g fill="#7B7B7B" fill-opacity="1.00" stroke="None"><path d="
M 637.00 824.00 
C 640.32 824.13 643.68 824.00 647.00 824.00
C 644.03 823.71 639.98 823.82 637.00 824.00 Z"/>
</g>
<g fill="#646464" fill-opacity="1.00" stroke="None"><path d="
M 661.00 824.00 
C 671.00 824.00 681.00 824.00 691.00 824.00
C 681.64 823.09 670.43 823.09 661.00 824.00 Z"/>
</g>
<g fill="#ECECEC" fill-opacity="1.00" stroke="None"><path d="
M 376.00 842.00 
C 369.37 841.81 362.62 842.25 356.00 842.00 C 349.38 841.75 341.07 840.54 344.00 850.00
C 348.00 850.00 352.00 850.00 356.00 850.00
C 356.00 858.33 356.00 866.67 356.00 875.00
C 358.26 876.04 360.55 874.59 363.00 876.00
C 363.97 867.48 364.23 858.82 364.00 850.00
C 370.58 850.51 378.96 851.27 376.00 842.00 Z"/>
</g>
<g fill="#F3F3F3" fill-opacity="1.00" stroke="None"><path d="
M 418.00 842.00 
C 411.53 839.81 393.64 840.91 392.00 849.00 C 390.36 857.09 390.49 872.51 398.33 875.67 C 406.17 878.83 421.50 876.20 423.67 868.67 C 425.85 861.14 425.85 844.65 418.00 842.00 Z"/>
</g>
<g fill="#EFEFEF" fill-opacity="1.00" stroke="None"><path d="
M 476.00 864.00 
C 475.86 860.83 475.63 854.72 475.00 851.00
C 471.52 839.54 452.22 839.46 444.70 844.70 C 437.19 849.94 437.67 872.43 447.33 875.67 C 456.99 878.91 475.28 877.33 476.00 864.00 Z"/>
</g>
<g fill="#F3F3F3" fill-opacity="1.00" stroke="None"><path d="
M 500.00 855.00 
C 499.83 853.26 500.26 846.10 500.00 845.00
C 500.95 840.48 495.61 842.36 493.00 842.00
C 493.00 853.00 493.00 864.00 493.00 875.00
C 501.52 875.97 510.18 876.23 519.00 876.00
C 518.41 873.06 520.59 870.91 520.00 868.00
C 514.70 867.70 508.20 868.41 503.03 867.97 C 497.85 867.54 500.00 858.69 500.00 855.00 Z"/>
</g>
<g fill="#EDEDED" fill-opacity="1.00" stroke="None"><path d="
M 567.00 850.00 
C 571.32 837.50 554.18 842.85 546.00 842.00 C 537.83 841.15 531.57 852.93 537.77 859.23 C 543.97 865.53 560.48 856.50 560.00 868.00
C 552.67 868.00 545.33 868.00 538.00 868.00
C 536.10 879.15 552.89 876.19 560.97 875.98 C 569.06 875.76 571.94 861.74 565.23 857.77 C 558.52 853.80 542.98 860.40 543.00 850.00
C 551.00 850.00 559.00 850.00 567.00 850.00 Z"/>
</g>
<g fill="#757575" fill-opacity="1.00" stroke="None"><path d="
M 500.00 855.00 
C 500.00 852.15 500.87 847.69 500.00 845.00
C 500.26 846.10 499.83 853.26 500.00 855.00 Z"/>
</g>
<g fill="#000000" fill-opacity="1.00" stroke="None"><path d="
M 417.00 850.00 
C 412.63 851.79 403.30 847.27 399.78 850.78 C 396.26 854.29 400.80 863.66 399.00 868.00
C 403.37 866.21 412.70 870.73 416.22 867.22 C 419.74 863.71 415.20 854.34 417.00 850.00 Z"/>
</g>
<g fill="#000000" fill-opacity="1.00" stroke="None"><path d="
M 448.00 868.00 
C 455.83 865.65 467.37 873.48 468.00 862.00 C 468.63 850.52 466.22 849.85 455.00 850.00 C 443.78 850.16 449.26 859.63 448.00 868.00 Z"/>
</g>
<g fill="#696969" fill-opacity="1.00" stroke="None"><path d="
M 476.00 864.00 
C 476.24 859.58 476.14 854.74 475.00 851.00
C 475.63 854.72 475.86 860.83 476.00 864.00 Z"/>
</g>
<g fill="#D9D9D9" fill-opacity="1.00" stroke="None"><path d="
M 163.00 857.00 
C 175.29 857.00 188.50 856.89 200.00 858.00
C 202.00 858.00 204.00 858.00 206.00 858.00
C 211.67 857.45 218.40 857.46 224.00 858.00
C 227.67 858.00 231.33 858.00 235.00 858.00
C 239.41 857.57 244.66 857.58 249.00 858.00
C 269.27 857.45 290.13 859.18 310.00 857.00
C 302.99 855.17 293.83 856.00 286.00 856.00
C 279.62 856.00 272.62 855.54 267.00 855.00
C 220.31 855.31 172.66 853.91 127.00 857.00
C 139.00 857.00 151.00 857.00 163.00 857.00 Z"/>
</g>
<g fill="#797979" fill-opacity="1.00" stroke="None"><path d="
M 286.00 856.00 
C 280.38 855.46 273.38 855.00 267.00 855.00
C 272.62 855.54 279.62 856.00 286.00 856.00 Z"/>
</g>
<g fill="#DADADA" fill-opacity="1.00" stroke="None"><path d="
M 740.00 858.00 
C 742.42 857.77 745.90 857.00 749.00 857.00
C 758.18 855.73 771.25 859.59 778.00 855.00
C 721.34 856.93 661.30 852.07 605.00 857.00
C 649.01 858.83 695.16 858.00 740.00 858.00 Z"/>
</g>
<g fill="#575757" fill-opacity="1.00" stroke="None"><path d="
M 200.00 858.00 
C 188.50 856.89 175.29 857.00 163.00 857.00
C 174.50 858.11 187.71 858.00 200.00 858.00 Z"/>
</g>
<g fill="#6C6C6C" fill-opacity="1.00" stroke="None"><path d="
M 206.00 858.00 
C 212.00 858.00 218.00 858.00 224.00 858.00
C 218.40 857.46 211.67 857.45 206.00 858.00 Z"/>
</g>
<g fill="#6E6E6E" fill-opacity="1.00" stroke="None"><path d="
M 235.00 858.00 
C 239.67 858.00 244.33 858.00 249.00 858.00
C 244.66 857.58 239.41 857.57 235.00 858.00 Z"/>
</g>
<g fill="#636363" fill-opacity="1.00" stroke="None"><path d="
M 740.00 858.00 
C 743.10 858.00 746.58 857.23 749.00 857.00
C 745.90 857.00 742.42 857.77 740.00 858.00 Z"/>
</g>
</svg>